<svg width="180" height="180" viewBox="0 0 180 180" fill="none" xmlns="http://www.w3.org/2000/svg">
<path d="M154.186 57.7766C154.186 72.462 149.854 85.5423 143.113 94.8216C136.367 104.106 127.499 109.275 118.216 109.275C108.932 109.275 100.064 104.106 93.3189 94.8216C86.5775 85.5423 82.2456 72.462 82.2456 57.7766C82.2456 43.0912 86.5775 30.0109 93.3189 20.7315C100.064 11.4468 108.932 6.27778 118.216 6.27778C127.499 6.27778 136.367 11.4468 143.113 20.7315C149.854 30.0109 154.186 43.0912 154.186 57.7766Z" fill="white" stroke="black" stroke-width="10.5556"/>
<ellipse cx="135.575" cy="61.7194" rx="23.7598" ry="33.2637" fill="black"/>
<path d="M98.2181 57.7766C98.2181 72.462 93.8861 85.5423 87.1447 94.8216C80.3994 104.106 71.5312 109.275 62.2479 109.275C52.9647 109.275 44.0965 104.106 37.3512 94.8216C30.6097 85.5423 26.2778 72.462 26.2778 57.7766C26.2778 43.0912 30.6097 30.0109 37.3512 20.7315C44.0965 11.4468 52.9647 6.27778 62.2479 6.27778C71.5312 6.27778 80.3994 11.4468 87.1447 20.7315C93.8861 30.0109 98.2181 43.0912 98.2181 57.7766Z" fill="white" stroke="black" stroke-width="10.5556"/>
<ellipse cx="79.6074" cy="61.7194" rx="23.7598" ry="33.2637" fill="black"/>
<path d="M41.9316 137.261C63.6696 176.712 117.768 180.45 130.979 154.293" stroke="black" stroke-width="10.5556" stroke-linecap="round"/>
<path d="M30.0925 141.447C38.4488 137.213 41.978 134.303 45.1505 127.665" stroke="black" stroke-width="10.5556" stroke-linecap="round"/>
<path d="M141.94 159.169C134.554 153.406 131.651 149.872 129.815 142.747" stroke="black" stroke-width="10.5556" stroke-linecap="round"/>
</svg>
